<svg width="37" height="57" viewBox="0 0 37 57" fill="none" xmlns="http://www.w3.org/2000/svg">
<path fill-rule="evenodd" clip-rule="evenodd" d="M2.46875 23.1562C2.94117 23.1562 3.39423 23.3439 3.72828 23.678C4.06233 24.012 4.25 24.4651 4.25 24.9375V28.5C4.25 32.2793 5.75133 35.9039 8.42373 38.5763C11.0961 41.2487 14.7207 42.75 18.5 42.75C22.2793 42.75 25.9039 41.2487 28.5763 38.5763C31.2487 35.9039 32.75 32.2793 32.75 28.5V24.9375C32.75 24.4651 32.9377 24.012 33.2717 23.678C33.6058 23.3439 34.0588 23.1562 34.5312 23.1562C35.0037 23.1562 35.4567 23.3439 35.7908 23.678C36.1248 24.012 36.3125 24.4651 36.3125 24.9375V28.5C36.3126 32.9158 34.6724 37.1742 31.7102 40.4491C28.748 43.724 24.6749 45.7819 20.2812 46.2234V53.4375H30.9688C31.4412 53.4375 31.8942 53.6252 32.2283 53.9592C32.5623 54.2933 32.75 54.7463 32.75 55.2188C32.75 55.6912 32.5623 56.1442 32.2283 56.4783C31.8942 56.8123 31.4412 57 30.9688 57H6.03125C5.55883 57 5.10577 56.8123 4.77172 56.4783C4.43767 56.1442 4.25 55.6912 4.25 55.2188C4.25 54.7463 4.43767 54.2933 4.77172 53.9592C5.10577 53.6252 5.55883 53.4375 6.03125 53.4375H16.7188V46.2234C12.3251 45.7819 8.25202 43.724 5.28982 40.4491C2.32762 37.1742 0.687445 32.9158 0.6875 28.5V24.9375C0.6875 24.4651 0.875167 24.012 1.20922 23.678C1.54327 23.3439 1.99633 23.1562 2.46875 23.1562Z" fill="#8A8A8A"/>
<path fill-rule="evenodd" clip-rule="evenodd" d="M25.625 28.5V10.6875C25.625 8.79783 24.8743 6.98556 23.5381 5.64936C22.2019 4.31317 20.3897 3.5625 18.5 3.5625C16.6103 3.5625 14.7981 4.31317 13.4619 5.64936C12.1257 6.98556 11.375 8.79783 11.375 10.6875V28.5C11.375 30.3897 12.1257 32.2019 13.4619 33.5381C14.7981 34.8743 16.6103 35.625 18.5 35.625C20.3897 35.625 22.2019 34.8743 23.5381 33.5381C24.8743 32.2019 25.625 30.3897 25.625 28.5ZM18.5 0C15.6655 0 12.9471 1.126 10.9428 3.1303C8.9385 5.13459 7.8125 7.853 7.8125 10.6875V28.5C7.8125 31.3345 8.9385 34.0529 10.9428 36.0572C12.9471 38.0615 15.6655 39.1875 18.5 39.1875C21.3345 39.1875 24.0529 38.0615 26.0572 36.0572C28.0615 34.0529 29.1875 31.3345 29.1875 28.5V10.6875C29.1875 7.853 28.0615 5.13459 26.0572 3.1303C24.0529 1.126 21.3345 0 18.5 0V0Z" fill="#8A8A8A"/>
<path opacity="0.1" fill-rule="evenodd" clip-rule="evenodd" d="M25.625 28.5V10.6875C25.625 8.79783 24.8743 6.98556 23.5381 5.64936C22.2019 4.31317 20.3897 3.5625 18.5 3.5625C16.6103 3.5625 14.7981 4.31317 13.4619 5.64936C12.1257 6.98556 11.375 8.79783 11.375 10.6875V28.5C11.375 30.3897 12.1257 32.2019 13.4619 33.5381C14.7981 34.8743 16.6103 35.625 18.5 35.625C20.3897 35.625 22.2019 34.8743 23.5381 33.5381C24.8743 32.2019 25.625 30.3897 25.625 28.5Z" fill="#F99E42"/>
<path fill-rule="evenodd" clip-rule="evenodd" d="M25.625 28.5V20.6875H11.375V28.5C11.375 30.3897 12.1257 32.2019 13.4619 33.5381C14.7981 34.8743 16.6103 35.625 18.5 35.625C20.3897 35.625 22.2019 34.8743 23.5381 33.5381C24.8743 32.2019 25.625 30.3897 25.625 28.5Z" fill="#F99E42"/>
</svg>
