<svg width="47" height="44" viewBox="0 0 47 44" fill="none" xmlns="http://www.w3.org/2000/svg">
<path fill-rule="evenodd" clip-rule="evenodd" d="M20.5095 6.42502C20.806 6.56785 21.0562 6.79139 21.2314 7.06998C21.4066 7.34857 21.4997 7.67092 21.5 8.00002V36C21.4995 36.3293 21.4062 36.6518 21.2306 36.9304C21.0551 37.209 20.8045 37.4324 20.5077 37.575C20.2108 37.7176 19.8798 37.7735 19.5526 37.7364C19.2254 37.6992 18.9153 37.5705 18.658 37.365L10.3875 30.75H2.25C1.78587 30.75 1.34075 30.5656 1.01256 30.2375C0.684374 29.9093 0.5 29.4641 0.5 29V15C0.5 14.5359 0.684374 14.0908 1.01256 13.7626C1.34075 13.4344 1.78587 13.25 2.25 13.25H10.3875L18.658 6.63502C18.9155 6.42918 19.2259 6.30026 19.5535 6.2631C19.881 6.22595 20.2124 6.28208 20.5095 6.42502ZM18 11.64L12.092 16.365C11.7822 16.6135 11.3971 16.7493 11 16.75H4V27.25H11C11.3971 27.2507 11.7822 27.3865 12.092 27.635L18 32.36V11.64Z" fill="#545454"/>
<path d="M37.3764 43.0351C40.1433 40.2759 42.3375 36.9972 43.8331 33.3873C45.3288 29.7774 46.0962 25.9075 46.0914 22.0001C46.0962 18.0926 45.3288 14.2228 43.8331 10.6129C42.3375 7.00297 40.1433 3.72424 37.3764 0.965088L34.8984 3.43959C37.3398 5.87415 39.2759 8.76719 40.5955 11.9524C41.9151 15.1377 42.5922 18.5523 42.5879 22.0001C42.5879 29.2486 39.6479 35.8111 34.8984 40.5606L37.3764 43.0351Z" fill="#545454"/>
<path d="M32.4237 38.0861C34.5394 35.976 36.2173 33.4686 37.3609 30.708C38.5045 27.9475 39.0914 24.9881 39.0877 22.0001C39.0914 19.012 38.5045 16.0526 37.3609 13.2921C36.2173 10.5315 34.5394 8.02416 32.4237 5.91406L29.9492 8.38856C31.7394 10.1741 33.1591 12.2957 34.1267 14.6317C35.0944 16.9676 35.5909 19.4717 35.5877 22.0001C35.5918 24.5288 35.0961 27.0334 34.129 29.3699C33.162 31.7065 31.7427 33.8288 29.9527 35.6151L32.4237 38.0861Z" fill="#545454"/>
<path d="M27.4745 33.137C28.9392 31.6761 30.1007 29.9401 30.8924 28.0289C31.684 26.1176 32.0902 24.0688 32.0875 22C32.0902 19.9313 31.684 17.8825 30.8924 15.9712C30.1007 14.0599 28.9392 12.324 27.4745 10.863L25 13.3375C26.1392 14.4739 27.0426 15.8242 27.6583 17.3108C28.2739 18.7974 28.5897 20.391 28.5875 22C28.5895 23.6091 28.2736 25.2026 27.658 26.6892C27.0423 28.1758 26.139 29.5261 25 30.6625L27.4745 33.137Z" fill="#545454"/>
</svg>
