<svg width="38" height="38" viewBox="0 0 38 38" fill="none" xmlns="http://www.w3.org/2000/svg">
<path d="M26 0H12C5.37258 0 0 5.37258 0 12V26C0 32.6274 5.37258 38 12 38H26C32.6274 38 38 32.6274 38 26V12C38 5.37258 32.6274 0 26 0Z" fill="#F99E42" fill-opacity="0.2"/>
<path fill-rule="evenodd" clip-rule="evenodd" d="M13.375 17.125C13.5408 17.125 13.6997 17.1908 13.8169 17.3081C13.9342 17.4253 14 17.5842 14 17.75V19C14 20.3261 14.5268 21.5979 15.4645 22.5355C16.4021 23.4732 17.6739 24 19 24C20.3261 24 21.5979 23.4732 22.5355 22.5355C23.4732 21.5979 24 20.3261 24 19V17.75C24 17.5842 24.0658 17.4253 24.1831 17.3081C24.3003 17.1908 24.4592 17.125 24.625 17.125C24.7908 17.125 24.9497 17.1908 25.0669 17.3081C25.1842 17.4253 25.25 17.5842 25.25 17.75V19C25.25 20.5494 24.6745 22.0436 23.6352 23.1927C22.5958 24.3418 21.1666 25.0638 19.625 25.2188V27.75H23.375C23.5408 27.75 23.6997 27.8158 23.8169 27.9331C23.9342 28.0503 24 28.2092 24 28.375C24 28.5408 23.9342 28.6997 23.8169 28.8169C23.6997 28.9342 23.5408 29 23.375 29H14.625C14.4592 29 14.3003 28.9342 14.1831 28.8169C14.0658 28.6997 14 28.5408 14 28.375C14 28.2092 14.0658 28.0503 14.1831 27.9331C14.3003 27.8158 14.4592 27.75 14.625 27.75H18.375V25.2188C16.8334 25.0638 15.4042 24.3418 14.3648 23.1927C13.3255 22.0436 12.75 20.5494 12.75 19V17.75C12.75 17.5842 12.8158 17.4253 12.9331 17.3081C13.0503 17.1908 13.2092 17.125 13.375 17.125Z" fill="#F99E42"/>
<path fill-rule="evenodd" clip-rule="evenodd" d="M21.5 19V12.75C21.5 12.087 21.2366 11.4511 20.7678 10.9822C20.2989 10.5134 19.663 10.25 19 10.25C18.337 10.25 17.7011 10.5134 17.2322 10.9822C16.7634 11.4511 16.5 12.087 16.5 12.75V19C16.5 19.663 16.7634 20.2989 17.2322 20.7678C17.7011 21.2366 18.337 21.5 19 21.5C19.663 21.5 20.2989 21.2366 20.7678 20.7678C21.2366 20.2989 21.5 19.663 21.5 19ZM19 9C18.0054 9 17.0516 9.39509 16.3483 10.0983C15.6451 10.8016 15.25 11.7554 15.25 12.75V19C15.25 19.9946 15.6451 20.9484 16.3483 21.6517C17.0516 22.3549 18.0054 22.75 19 22.75C19.9946 22.75 20.9484 22.3549 21.6517 21.6517C22.3549 20.9484 22.75 19.9946 22.75 19V12.75C22.75 11.7554 22.3549 10.8016 21.6517 10.0983C20.9484 9.39509 19.9946 9 19 9Z" fill="#F99E42"/>
<path fill-rule="evenodd" clip-rule="evenodd" d="M21.5 19V12.75C21.5 12.087 21.2366 11.4511 20.7678 10.9822C20.2989 10.5134 19.663 10.25 19 10.25C18.337 10.25 17.7011 10.5134 17.2322 10.9822C16.7634 11.4511 16.5 12.087 16.5 12.75V19C16.5 19.663 16.7634 20.2989 17.2322 20.7678C17.7011 21.2366 18.337 21.5 19 21.5C19.663 21.5 20.2989 21.2366 20.7678 20.7678C21.2366 20.2989 21.5 19.663 21.5 19Z" fill="#F99E42"/>
<path d="M4 4L34 34" stroke="#E72525" stroke-width="2"/>
</svg>
