<svg width="38" height="38" viewBox="0 0 38 38" fill="none" xmlns="http://www.w3.org/2000/svg">
<rect width="38" height="38" rx="12" fill="#F1F3F2"/>
<path d="M19 21.5C19.663 21.5 20.2989 21.2366 20.7678 20.7678C21.2366 20.2989 21.5 19.663 21.5 19C21.5 18.337 21.2366 17.7011 20.7678 17.2322C20.2989 16.7634 19.663 16.5 19 16.5C18.337 16.5 17.7011 16.7634 17.2322 17.2322C16.7634 17.7011 16.5 18.337 16.5 19C16.5 19.663 16.7634 20.2989 17.2322 20.7678C17.7011 21.2366 18.337 21.5 19 21.5Z" fill="#545454"/>
<path fill-rule="evenodd" clip-rule="evenodd" d="M19.7498 10.25C21.7498 10.375 23.6248 11.375 24.9998 12.75C26.6248 14.5 27.4998 16.625 27.4998 19.125C27.4998 21.125 26.7498 23 25.4998 24.625C24.2498 26.125 22.4998 27.25 20.4998 27.625C18.4998 28 16.4998 27.75 14.7498 26.75C12.9998 25.75 11.6248 24.25 10.8748 22.375C10.1248 20.5 9.99978 18.375 10.6248 16.5C11.2498 14.5 12.3748 12.875 14.1248 11.75C15.7498 10.625 17.7498 10.125 19.7498 10.25ZM20.3748 26.375C21.9998 26 23.4998 25.125 24.6248 23.75C25.6248 22.375 26.2498 20.75 26.1248 19C26.1248 17 25.3748 15 23.9998 13.625C22.7498 12.375 21.2498 11.625 19.4998 11.5C17.8748 11.375 16.1248 11.75 14.7498 12.75C13.3748 13.75 12.3748 15.125 11.8748 16.875C11.3748 18.5 11.3748 20.25 12.1248 21.875C12.8748 23.5 13.9998 24.75 15.4998 25.625C16.9998 26.5 18.7498 26.75 20.3748 26.375Z" fill="#545454"/>
</svg>
