<svg width="38" height="38" viewBox="0 0 38 38" fill="none" xmlns="http://www.w3.org/2000/svg">
<rect width="38" height="38" rx="12" fill="#F1F3F2"/>
<path d="M26.5 11.5H11.5C11.1685 11.5 10.8505 11.6317 10.6161 11.8661C10.3817 12.1005 10.25 12.4185 10.25 12.75V22.75C10.25 23.0815 10.3817 23.3995 10.6161 23.6339C10.8505 23.8683 11.1685 24 11.5 24H16.5V26.5H14V27.75H24V26.5H21.5V24H26.5C26.8315 24 27.1495 23.8683 27.3839 23.6339C27.6183 23.3995 27.75 23.0815 27.75 22.75V12.75C27.75 12.4185 27.6183 12.1005 27.3839 11.8661C27.1495 11.6317 26.8315 11.5 26.5 11.5ZM20.25 26.5H17.75V24H20.25V26.5ZM26.5 22.75H11.5V12.75H26.5V22.75Z" fill="#545454"/>
</svg>
