<svg width="38" height="38" viewBox="0 0 38 38" fill="none" xmlns="http://www.w3.org/2000/svg">
<path d="M26 0H12C5.37258 0 0 5.37258 0 12V26C0 32.6274 5.37258 38 12 38H26C32.6274 38 38 32.6274 38 26V12C38 5.37258 32.6274 0 26 0Z" fill="#F99E42" fill-opacity="0.2"/>
<path d="M27.8891 14.7444C27.8908 14.5258 27.8313 14.3112 27.7174 14.1247C27.6035 13.9382 27.4398 13.7872 27.2447 13.6888C27.0597 13.5895 26.8504 13.5446 26.6409 13.5593C26.4315 13.5741 26.2305 13.6479 26.0613 13.7721L23.4447 15.4444V13.4444C23.4447 13.1497 23.3276 12.8671 23.1192 12.6587C22.9109 12.4503 22.6282 12.3333 22.3336 12.3333H12.3336C11.7442 12.3333 11.1789 12.5674 10.7622 12.9841C10.3455 13.4009 10.1113 13.9661 10.1113 14.5555V23.4444C10.1113 24.0337 10.3455 24.599 10.7622 25.0157C11.1789 25.4325 11.7442 25.6666 12.3336 25.6666H22.3336C22.6282 25.6666 22.9109 25.5495 23.1192 25.3411C23.3276 25.1328 23.4447 24.8502 23.4447 24.5555V22.5555L26.0224 24.2221C26.1949 24.3542 26.4012 24.4347 26.6175 24.4544C26.8338 24.474 27.0512 24.432 27.2447 24.3333C27.4432 24.2332 27.6093 24.0788 27.7234 23.8879C27.8375 23.6971 27.895 23.4777 27.8891 23.2555V14.7444ZM26.7391 23.3166C26.7058 23.3166 26.678 23.3166 26.6336 23.2833L22.3336 20.5388V24.5555H12.3336C12.0389 24.5555 11.7562 24.4384 11.5479 24.23C11.3395 24.0217 11.2224 23.739 11.2224 23.4444V14.5555C11.2224 14.2608 11.3395 13.9782 11.5479 13.7698C11.7562 13.5614 12.0389 13.4444 12.3336 13.4444H22.3336V17.461L26.6669 14.6833C26.6774 14.6756 26.69 14.6714 26.703 14.6714C26.716 14.6714 26.7286 14.6756 26.7391 14.6833C26.7513 14.688 26.7616 14.6964 26.7686 14.7074C26.7756 14.7184 26.7789 14.7314 26.778 14.7444V23.2555C26.7789 23.2685 26.7756 23.2814 26.7686 23.2924C26.7616 23.3034 26.7513 23.3119 26.7391 23.3166Z" fill="#F99E42"/>
<path d="M26.7393 23.3166C26.706 23.3166 26.6782 23.3166 26.6338 23.2832L22.3338 20.5388V24.5554H12.3338C12.0391 24.5554 11.7565 24.4384 11.5481 24.23C11.3397 24.0216 11.2227 23.739 11.2227 23.4443V14.5554C11.2227 14.2608 11.3397 13.9781 11.5481 13.7698C11.7565 13.5614 12.0391 13.4443 12.3338 13.4443H22.3338V17.461L26.6671 14.6832C26.6776 14.6756 26.6902 14.6714 26.7032 14.6714C26.7162 14.6714 26.7288 14.6756 26.7393 14.6832C26.7515 14.6879 26.7618 14.6964 26.7688 14.7074C26.7758 14.7184 26.7791 14.7313 26.7782 14.7443V23.2554C26.7791 23.2684 26.7758 23.2814 26.7688 23.2924C26.7618 23.3034 26.7515 23.3118 26.7393 23.3166Z" fill="#F99E42"/>
<path d="M4 4L34 34" stroke="#E72525" stroke-width="2"/>
</svg>
