<svg width="176" height="36" viewBox="0 0 176 36" fill="none" xmlns="http://www.w3.org/2000/svg">
<path d="M154.603 15.7718C158.525 11.764 162.038 11.8154 164.822 15.9398C165.279 15.4324 165.702 14.9113 166.197 14.4381C168.376 12.3605 172.508 12.3811 174.477 14.4861C175.456 15.5563 175.988 16.9597 175.962 18.4082C176.01 22.4641 175.986 26.5199 176 30.5757C176 30.9837 175.921 31.2134 175.443 31.2134C174.787 31.2134 174.134 31.2511 173.474 31.2408C172.669 31.2408 172.549 30.898 172.556 30.2123C172.587 27.0444 172.58 23.8731 172.556 20.7019C172.551 20.0743 172.495 19.4482 172.387 18.8299C172.167 17.5957 171.7 16.4986 170.325 16.1421C169.606 15.9494 168.845 15.9743 168.14 16.2136C167.435 16.4529 166.817 16.8958 166.365 17.486C165.544 18.6071 165.406 19.9167 165.393 21.2367C165.367 24.2605 165.367 27.2878 165.393 30.3186C165.393 30.9562 165.262 31.2271 164.554 31.2374C163.925 31.2374 163.299 31.2374 162.674 31.2168C162.048 31.1962 161.914 30.9494 161.917 30.3837C161.917 27.0718 161.917 23.76 161.917 20.4413C161.94 19.751 161.88 19.0604 161.739 18.3842C161.491 17.3557 161.123 16.3786 159.986 16.0426C159.411 15.8507 158.795 15.8166 158.202 15.9439C157.609 16.0711 157.062 16.3551 156.617 16.766C155.373 17.8563 154.878 19.3236 154.837 20.9007C154.761 23.8971 154.795 26.897 154.785 29.8969C154.785 31.1105 154.785 31.1105 153.62 31.2134C151.241 31.4259 151.241 31.4259 151.241 29.0775C151.241 24.1337 151.241 19.1934 151.241 14.253C151.241 13.5125 151.393 13.1868 152.211 13.1593C154.208 13.0839 154.321 13.1593 154.503 15.1067C154.507 15.3295 154.421 15.5661 154.603 15.7718Z" fill="#F99E42"/>
<path d="M92.7699 31.5219C91.1965 31.5757 89.6264 31.3434 88.1365 30.8362C87.5865 30.6648 87.4181 30.3905 87.5522 29.8282C87.7309 29.0808 87.8959 28.3335 88.1571 27.6032C88.3668 26.9998 88.6383 26.8215 89.2948 27.0649C90.7906 27.6606 92.4191 27.8453 94.0108 27.5998C94.3209 27.5502 94.625 27.4686 94.9182 27.3564C95.6263 27.0718 96.166 26.6124 96.1831 25.7896C96.2003 24.9668 95.6744 24.4799 94.9457 24.2262C94.1345 23.9485 93.3061 23.7222 92.4846 23.472C92.1581 23.3691 91.8247 23.28 91.5016 23.1668C89.0336 22.3303 87.8993 20.8972 87.8546 18.5728C87.8065 16.1077 89.0817 14.2152 91.4019 13.3513C93.6499 12.5148 95.9494 12.6108 98.2455 13.1044C99.0017 13.269 100.174 13.2039 100.363 13.9273C100.631 14.9558 100.064 16.0357 99.6101 17.0128C99.4073 17.4551 99.067 17.1774 98.7955 17.0883C97.3724 16.622 95.9391 16.2792 94.4233 16.5603C93.6705 16.6974 93.0484 16.958 92.9384 17.8425C92.8318 18.7819 93.4505 19.1762 94.1964 19.423C95.2551 19.7659 96.3344 20.0573 97.3896 20.4138C99.2354 21.0344 100.6 22.128 100.988 24.1611C101.24 25.3283 101.116 26.5447 100.635 27.6377C100.153 28.7307 99.339 29.6447 98.3074 30.2499C96.6372 31.2333 94.7031 31.6776 92.7699 31.5219Z" fill="#0697CE"/>
<path d="M62.192 16.3649C62.192 13.1114 62.192 9.85095 62.192 6.59739C62.192 5.9117 62.3844 5.64772 63.1028 5.59629C64.158 5.52601 65.2168 5.52601 66.272 5.59629C66.9766 5.63743 67.1898 5.88085 67.1863 6.57682C67.1623 12.1171 67.1863 17.6609 67.1863 23.2012C67.1863 23.8594 67.1863 24.5177 67.2413 25.1725C67.3754 26.8867 68.1316 27.5724 69.8261 27.305C70.6236 27.185 70.8573 27.4593 70.9261 28.1381C70.9948 28.8752 71.0773 29.6123 71.1151 30.3494C71.1322 30.4414 71.1303 30.5358 71.1095 30.627C71.0886 30.7182 71.0493 30.8042 70.994 30.8796C70.9386 30.9551 70.8683 31.0185 70.7875 31.0658C70.7066 31.1132 70.6169 31.1436 70.5239 31.1551C69.0149 31.3848 67.5025 31.498 66.0142 31.0625C63.6562 30.3769 62.271 28.5872 62.2332 26.0433C62.1885 22.8172 62.2332 19.5876 62.2332 16.3581L62.192 16.3649Z" fill="#0797CE"/>
<path d="M49.8796 18.5146C49.8796 22.4264 49.8521 26.3382 49.9003 30.2466C49.9003 31.0111 49.6459 31.2751 48.9585 31.2957C47.8452 31.3677 46.7279 31.3505 45.6174 31.2442C45.0468 31.1723 44.8922 30.9014 44.9128 30.4146C44.9128 30.2123 44.9128 30.0134 44.9128 29.8146V7.12193C44.9128 5.71971 44.9128 5.75057 46.2877 5.57915C47.087 5.4855 47.8945 5.4855 48.6938 5.57915C49.9071 5.71628 49.9106 5.70257 49.9106 6.95051L49.8796 18.5146Z" fill="#0797CE"/>
<path d="M57.7475 12.9468C58.3766 12.9776 59.0056 12.9913 59.6312 13.0393C60.1983 13.0805 60.4389 13.2519 60.078 13.8793C58.7787 16.1798 57.5035 18.5145 56.1836 20.815C56.047 21.0081 55.9737 21.2386 55.9737 21.475C55.9737 21.7113 56.047 21.9418 56.1836 22.1349C57.7785 24.9051 59.3252 27.7027 60.8995 30.4831C61.147 30.9185 61.2432 31.1688 60.5558 31.2236C59.1652 31.3783 57.7613 31.3702 56.3726 31.1996C56.205 31.1887 56.0435 31.133 55.905 31.0382C55.7665 30.9435 55.6561 30.8133 55.5855 30.6614C54.0318 27.8707 52.4667 25.0845 50.8902 22.3029C50.7725 22.1269 50.708 21.9209 50.7043 21.7094C50.7007 21.4979 50.758 21.2898 50.8696 21.1098C52.1413 18.7511 53.42 16.3923 54.6127 13.989C54.7454 13.6819 54.9714 13.4241 55.2587 13.2519C55.5461 13.0797 55.8804 13.0018 56.2145 13.0291C56.7301 13.0291 57.2457 13.0291 57.7578 13.0291L57.7475 12.9468Z" fill="#0797CE"/>
<path d="M106.639 15.9878C107.746 14.6404 108.815 13.4987 110.472 13.3307C113.125 13.0565 112.95 12.9399 112.861 15.5764C112.861 16.1112 112.703 16.382 111.998 16.358C108.794 16.2415 106.952 18.0311 106.883 21.3224C106.825 24.2605 106.846 27.1987 106.883 30.1368C106.883 30.8534 106.791 31.2648 105.928 31.2271C105.395 31.2031 104.848 31.2271 104.309 31.2271C103.508 31.2476 103.312 30.9425 103.319 30.1745C103.349 24.8674 103.349 19.5602 103.319 14.253C103.319 13.4062 103.618 13.1936 104.381 13.1662C106.309 13.101 106.419 13.1662 106.574 15.1204C106.581 15.3398 106.601 15.5626 106.639 15.9878Z" fill="#F99F42"/>
<path d="M40.0456 4.96199C40.0513 4.30372 39.9244 3.65101 39.6726 3.04251C39.4208 2.43402 39.049 1.88213 38.5795 1.41953C38.1099 0.95693 37.552 0.593028 36.9389 0.349379C36.3258 0.105731 35.6699 -0.0127075 35.01 0.0010791H5.04045C4.37351 -0.0125381 3.71071 0.108733 3.09205 0.357576C2.47338 0.60642 1.91166 0.977679 1.44076 1.44896C0.969872 1.92024 0.599568 2.48178 0.35219 3.09969C0.104811 3.71761 -0.0145156 4.37911 0.00140745 5.04427V30.8294C0.00140745 33.8772 2.11533 35.9994 5.15731 35.9994C10.0841 35.9994 15.0108 35.9994 19.9376 35.9994C24.9766 35.9994 30.0122 35.9994 35.0616 35.9994C35.7136 36.0094 36.3612 35.8898 36.9664 35.6474C37.5715 35.4049 38.1222 35.0447 38.5862 34.5876C39.0503 34.1305 39.4183 33.5858 39.6689 32.9853C39.9194 32.3847 40.0475 31.7404 40.0456 31.0899C40.0617 22.3818 40.0617 13.6724 40.0456 4.96199ZM36.6427 30.7128C36.6427 32.2247 36.134 32.7321 34.6491 32.7356C33.8757 32.7356 33.1023 32.7356 32.3289 32.7356C31.8443 32.7356 31.6415 32.5607 31.669 32.0842C31.6862 31.4293 31.669 30.7711 31.669 30.1128C31.669 29.65 31.5418 29.4477 31.04 29.4512C28.6923 29.4512 26.3412 29.4717 23.9936 29.4512C23.4402 29.4512 23.3061 29.674 23.3336 30.1677C23.3611 30.7368 23.2958 31.3128 23.3336 31.8819C23.3955 32.5676 23.1652 32.7596 22.4777 32.7527C18.1811 32.7219 13.8845 32.7527 9.59139 32.7527C8.18899 32.7527 6.78314 32.7527 5.38074 32.7527C3.92677 32.7527 3.39399 32.235 3.39399 30.8157C3.39399 22.3041 3.39399 13.7924 3.39399 5.28084C3.39399 3.75862 3.91646 3.25121 5.48042 3.25121H34.546C36.1306 3.25121 36.6427 3.76548 36.6427 5.36655C36.6473 13.8096 36.6473 22.2583 36.6427 30.7128Z" fill="#0797CE"/>
<path d="M85.9091 24.8947V21.8949C85.9091 20.8664 85.8747 19.8378 85.8129 18.8093C85.6479 15.9706 84.022 13.917 81.2722 13.1421C78.9486 12.4907 76.6354 12.7033 74.3118 13.1421C71.9057 13.5947 71.6582 14.0267 72.5691 16.3066C72.6137 16.4129 72.6687 16.5157 72.7031 16.622C72.899 17.2185 73.2118 17.3831 73.8649 17.1774C75.452 16.6695 77.1349 16.5323 78.7836 16.7763C80.1207 16.9751 80.9182 17.7808 80.9801 18.9979C81.0041 19.4984 80.8976 19.711 80.3304 19.6836C79.3303 19.6133 78.3264 19.6133 77.3262 19.6836C75.2226 19.8687 73.2565 20.4652 71.8747 22.1932C69.3449 25.3542 71.0876 30.1231 75.1711 31.107C78.5293 31.9196 81.8703 31.563 85.1804 30.6716C85.7304 30.5242 85.9297 30.3288 85.9194 29.7562C85.8919 28.1517 85.9091 26.5232 85.9091 24.8947ZM79.1824 27.6958C78.4434 27.7405 77.7025 27.6499 76.9963 27.4283C76.5647 27.3056 76.1866 27.0426 75.922 26.6811C75.6573 26.3197 75.5213 25.8804 75.5354 25.433C75.5045 24.521 75.807 23.7188 76.6663 23.2902C77.9209 22.6491 79.258 22.6903 80.6088 22.8857C80.9526 22.9371 80.9938 23.1531 80.9938 23.4274C80.9938 24.0274 80.9938 24.6273 80.9938 25.2273V25.8273C80.9766 27.6135 80.9766 27.6238 79.1824 27.6958Z" fill="#0697CE"/>
<path d="M129.724 19.9374C129.16 16.7044 127.524 14.2462 124.266 13.3137C121.007 12.3811 117.879 12.7823 115.384 15.3707C113.538 17.2872 113.119 19.7214 113.057 22.1178C113.095 24.5897 113.507 26.825 115.016 28.6901C116.824 30.9186 119.278 31.6077 122.062 31.522C123.707 31.5023 125.302 30.9597 126.616 29.9731C127.929 28.9865 128.893 27.6074 129.367 26.0365C129.969 24.0605 130.091 21.9699 129.724 19.9374ZM125.256 26.6982C124.472 28.3678 122.925 28.8444 121.158 28.7758C120.409 28.7824 119.673 28.5723 119.04 28.1707C118.408 27.7691 117.905 27.1934 117.594 26.5131C117.052 25.371 116.773 24.1221 116.779 22.8584C116.779 21.0859 116.824 19.3271 117.738 17.7158C119.251 15.0519 123.702 14.9353 125.149 17.6335C126.747 20.5716 126.675 23.688 125.269 26.6982H125.256Z" fill="#F99E42"/>
<path d="M147.89 18.5145C146.972 15.5283 144.968 13.6118 141.871 13.0667C138.675 12.5045 135.75 13.0976 133.567 15.7477C132.037 17.6094 131.642 19.8413 131.642 22.1692C131.642 22.5703 131.625 22.968 131.642 23.3691C131.859 27.7952 134.447 30.7916 138.606 31.4464C142.844 32.1321 146.556 30.0168 147.811 26.1838C148.646 23.6994 148.674 21.0155 147.89 18.5145ZM143.882 26.5438C143.033 28.258 141.596 28.8203 139.785 28.7791C138.066 28.738 136.764 28.0112 136.11 26.441C135.545 25.126 135.251 23.7106 135.247 22.2796C135.242 20.8486 135.528 19.4315 136.086 18.1133C136.75 16.4951 138.083 15.7546 139.816 15.7134C141.548 15.6723 142.961 16.2243 143.82 17.8254C144.559 19.1967 144.748 20.6881 144.735 22.2172C144.804 23.7068 144.512 25.1911 143.882 26.5438Z" fill="#F99E42"/>
<path d="M12.6781 8.42126C13.0136 8.42578 13.3397 8.53223 13.613 8.72639C18.3885 11.38 23.1182 14.109 27.802 16.9134C29.036 17.654 29.036 18.4048 27.802 19.1453C23.0563 22.0115 18.2499 24.7725 13.3827 27.4284C12.2518 28.0421 11.5334 27.6375 11.5094 26.3656C11.4131 20.8047 11.4131 15.2415 11.5094 9.67606C11.5266 8.75039 11.8737 8.40069 12.6781 8.42126Z" fill="#F99E42"/>
</svg>
