<svg width="24" height="24" viewBox="0 0 24 24" fill="none" xmlns="http://www.w3.org/2000/svg">
<path d="M17.0795 6.01481C18.1036 5.93308 19.1126 6.04091 19.938 6.32706C20.661 6.57768 21.1844 6.94211 21.5 7.37922V17.5378C21.2089 17.3827 20.9041 17.2522 20.5931 17.1444C19.46 16.7516 18.1666 16.6287 16.9205 16.7282C14.7021 16.9052 13.1186 18.0451 11.7743 19.0128C11.7397 19.0377 11.7053 19.0625 11.671 19.0871C10.2584 20.103 9.08239 20.9114 7.44563 21.0006C6.48034 21.0531 5.55955 20.913 4.83095 20.6129C4.18605 20.3473 3.74466 19.9815 3.5 19.5606V9.48445C3.68465 9.5851 3.87514 9.6752 4.06925 9.75515C5.12174 10.1887 6.34862 10.3562 7.55437 10.2906C9.83163 10.1666 11.4411 9.00904 12.811 8.02377L12.8387 8.00383C14.2608 6.98117 15.4386 6.14575 17.0795 6.01481Z" fill="white" stroke="#444444" stroke-width="2"/>
<circle cx="11.5" cy="13.5" r="2" fill="#444444"/>
<path d="M16.0795 3.01481C17.1036 2.93308 18.1126 3.04091 18.938 3.32706C19.661 3.57768 20.1844 3.94211 20.5 4.37922V14.5378C20.2089 14.3827 19.9041 14.2522 19.5931 14.1444C18.46 13.7516 17.1666 13.6287 15.9205 13.7282C13.7021 13.9052 12.1186 15.0451 10.7743 16.0128C10.7397 16.0377 10.7053 16.0625 10.671 16.0871C9.25842 17.103 8.08239 17.9114 6.44563 18.0006C5.48034 18.0531 4.55955 17.913 3.83095 17.6129C3.18605 17.3473 2.74466 16.9815 2.5 16.5606V6.48445C2.68465 6.5851 2.87514 6.6752 3.06925 6.75515C4.12174 7.18866 5.34862 7.35624 6.55437 7.29058C8.83163 7.16657 10.4411 6.00904 11.811 5.02377L11.8387 5.00383C13.2608 3.98117 14.4386 3.14575 16.0795 3.01481Z" fill="white" stroke="#444444" stroke-width="2"/>
<circle cx="11.5" cy="10.5" r="2" fill="#444444"/>
</svg>
