<svg width="24" height="24" viewBox="0 0 24 24" fill="none" xmlns="http://www.w3.org/2000/svg">
<path d="M21.6753 14.6645L20.1401 13.352C20.2128 12.9066 20.2503 12.452 20.2503 11.9973C20.2503 11.5426 20.2128 11.0879 20.1401 10.6426L21.6753 9.33008C21.7911 9.23095 21.874 9.09893 21.9129 8.95156C21.9518 8.80419 21.945 8.64846 21.8933 8.50508L21.8722 8.44414C21.4495 7.26295 20.8167 6.16797 20.0042 5.21211L19.962 5.16289C19.8634 5.047 19.7321 4.96369 19.5852 4.92394C19.4384 4.88419 19.2829 4.88987 19.1394 4.94023L17.2339 5.61758C16.5308 5.04102 15.7456 4.58633 14.8972 4.26758L14.5292 2.27539C14.5014 2.12549 14.4287 1.98758 14.3207 1.87999C14.2127 1.77241 14.0745 1.70023 13.9245 1.67305L13.8612 1.66133C12.6401 1.44102 11.3558 1.44102 10.1347 1.66133L10.0714 1.67305C9.92138 1.70023 9.7832 1.77241 9.67519 1.87999C9.56718 1.98758 9.49446 2.12549 9.4667 2.27539L9.09639 4.27695C8.25472 4.59577 7.47092 5.05022 6.77608 5.62227L4.85655 4.94023C4.71303 4.88947 4.55746 4.88359 4.41052 4.92336C4.26358 4.96313 4.13222 5.04667 4.03389 5.16289L3.9917 5.21211C3.18017 6.16865 2.54743 7.26345 2.12374 8.44414L2.10264 8.50508C1.99717 8.79805 2.08389 9.12617 2.32061 9.33008L3.87452 10.6566C3.80186 11.0973 3.7667 11.5473 3.7667 11.9949C3.7667 12.4449 3.80186 12.8949 3.87452 13.3332L2.32061 14.6598C2.20482 14.7589 2.12195 14.8909 2.08301 15.0383C2.04407 15.1857 2.05092 15.3414 2.10264 15.4848L2.12374 15.5457C2.54795 16.727 3.17608 17.8168 3.9917 18.7777L4.03389 18.827C4.13246 18.9428 4.26382 19.0262 4.41068 19.0659C4.55753 19.1057 4.71298 19.1 4.85655 19.0496L6.77608 18.3676C7.47452 18.9418 8.25498 19.3965 9.09639 19.7129L9.4667 21.7145C9.49446 21.8644 9.56718 22.0023 9.67519 22.1099C9.7832 22.2174 9.92138 22.2896 10.0714 22.3168L10.1347 22.3285C11.367 22.55 12.6289 22.55 13.8612 22.3285L13.9245 22.3168C14.0745 22.2896 14.2127 22.2174 14.3207 22.1099C14.4287 22.0023 14.5014 21.8644 14.5292 21.7145L14.8972 19.7223C15.7453 19.4044 16.5349 18.9482 17.2339 18.3723L19.1394 19.0496C19.2829 19.1004 19.4384 19.1063 19.5854 19.0665C19.7323 19.0267 19.8637 18.9432 19.962 18.827L20.0042 18.7777C20.8198 17.8145 21.448 16.727 21.8722 15.5457L21.8933 15.4848C21.9987 15.1965 21.912 14.8684 21.6753 14.6645ZM18.4761 10.9191C18.5347 11.273 18.5651 11.6363 18.5651 11.9996C18.5651 12.3629 18.5347 12.7262 18.4761 13.0801L18.3214 14.0199L20.0722 15.5176C19.8068 16.129 19.4717 16.7079 19.0737 17.2426L16.8987 16.4715L16.1628 17.0762C15.6026 17.5355 14.9792 17.8965 14.3042 18.1496L13.4112 18.4848L12.9917 20.7582C12.3298 20.8332 11.6615 20.8332 10.9995 20.7582L10.58 18.4801L9.69405 18.1402C9.02608 17.8871 8.40498 17.5262 7.84952 17.0691L7.11358 16.4621L4.92452 17.2402C4.52608 16.7035 4.19327 16.1246 3.92608 15.5152L5.69561 14.0035L5.54327 13.066C5.48702 12.7168 5.45655 12.3559 5.45655 11.9996C5.45655 11.641 5.48467 11.2824 5.54327 10.9332L5.69561 9.9957L3.92608 8.48398C4.19092 7.87227 4.52608 7.2957 4.92452 6.75898L7.11358 7.53711L7.84952 6.93008C8.40498 6.47305 9.02608 6.11211 9.69405 5.85898L10.5823 5.52383L11.0019 3.2457C11.6605 3.1707 12.3331 3.1707 12.994 3.2457L13.4136 5.51914L14.3065 5.8543C14.9792 6.10742 15.605 6.46836 16.1651 6.92773L16.9011 7.53242L19.0761 6.76133C19.4745 7.29805 19.8073 7.87695 20.0745 8.48633L18.3237 9.98398L18.4761 10.9191ZM12.0003 7.64023C9.72217 7.64023 7.8753 9.48711 7.8753 11.7652C7.8753 14.0434 9.72217 15.8902 12.0003 15.8902C14.2784 15.8902 16.1253 14.0434 16.1253 11.7652C16.1253 9.48711 14.2784 7.64023 12.0003 7.64023ZM13.8565 13.6215C13.6131 13.8657 13.3237 14.0593 13.0052 14.1912C12.6866 14.3231 12.3451 14.3908 12.0003 14.3902C11.2995 14.3902 10.6409 14.116 10.144 13.6215C9.89988 13.378 9.70627 13.0887 9.57433 12.7701C9.4424 12.4515 9.37476 12.11 9.3753 11.7652C9.3753 11.0645 9.64951 10.4059 10.144 9.90898C10.6409 9.41211 11.2995 9.14023 12.0003 9.14023C12.7011 9.14023 13.3597 9.41211 13.8565 9.90898C14.1007 10.1524 14.2943 10.4418 14.4263 10.7604C14.5582 11.0789 14.6258 11.4204 14.6253 11.7652C14.6253 12.466 14.3511 13.1246 13.8565 13.6215Z" fill="#545454"/>
</svg>
