<svg width="17" height="16" viewBox="0 0 17 16" fill="none" xmlns="http://www.w3.org/2000/svg">
<path d="M9.57731 10.6644C9.5512 10.6386 9.51595 10.6241 9.47921 10.6241C9.44248 10.6241 9.40722 10.6386 9.38112 10.6644L7.36366 12.6819C6.42959 13.616 4.85312 13.7149 3.82182 12.6819C2.78878 11.6489 2.88775 10.0741 3.82182 9.14006L5.83928 7.1226C5.8931 7.06878 5.8931 6.98023 5.83928 6.92641L5.14827 6.2354C5.12217 6.20955 5.08692 6.19505 5.05018 6.19505C5.01344 6.19505 4.97819 6.20955 4.95208 6.2354L2.93462 8.25286C1.4658 9.72168 1.4658 12.0985 2.93462 13.5656C4.40345 15.0327 6.7803 15.0344 8.24738 13.5656L10.2648 11.5482C10.3187 11.4943 10.3187 11.4058 10.2648 11.352L9.57731 10.6644ZM14.0671 2.43487C12.5983 0.966046 10.2214 0.966046 8.75435 2.43487L6.73516 4.45233C6.70931 4.47843 6.69481 4.51369 6.69481 4.55042C6.69481 4.58716 6.70931 4.62241 6.73516 4.64852L7.42443 5.33779C7.47825 5.39161 7.56679 5.39161 7.62062 5.33779L9.63808 3.32033C10.5721 2.38625 12.1486 2.28729 13.1799 3.32033C14.213 4.35336 14.114 5.92809 13.1799 6.86217L11.1625 8.87963C11.1366 8.90573 11.1221 8.94099 11.1221 8.97772C11.1221 9.01446 11.1366 9.04971 11.1625 9.07582L11.8535 9.76682C11.9073 9.82065 11.9958 9.82065 12.0497 9.76682L14.0671 7.74936C15.5342 6.28054 15.5342 3.90369 14.0671 2.43487ZM10.2041 5.57565C10.178 5.5498 10.1427 5.5353 10.106 5.5353C10.0692 5.5353 10.034 5.5498 10.0079 5.57565L6.0754 9.5064C6.04955 9.5325 6.03505 9.56775 6.03505 9.60449C6.03505 9.64123 6.04955 9.67648 6.0754 9.70259L6.76294 10.3901C6.81676 10.4439 6.9053 10.4439 6.95913 10.3901L10.8899 6.45937C10.9437 6.40555 10.9437 6.317 10.8899 6.26318L10.2041 5.57565Z" fill="#8A8A8A"/>
</svg>
